ply
format ascii 1.0
element vertex 892
property float x
property float y
property float z
element face 1024
property list uchar int vertex_index
end_header
29.306837 -0.000005 24.307898
28.897980 -0.000005 25.853373
29.372255 -0.000005 26.368532
30.337156 -0.000005 25.853373
31.400185 -0.000005 24.307898
27.035555 -11.502947 24.307898
26.658386 -11.342471 25.853373
27.095903 -11.528623 26.368532
27.986025 -11.907349 25.853373
28.966667 -12.324586 24.307898
20.807848 -20.807875 24.307898
20.517559 -20.517586 25.853373
20.854294 -20.854321 26.368532
21.539375 -21.539402 25.853373
22.294123 -22.294149 24.307898
11.502920 -27.035582 24.307898
11.342444 -26.658413 25.853373
11.528596 -27.095930 26.368532
11.907322 -27.986052 25.853373
12.324559 -28.966694 24.307898
-0.000022 -29.306864 24.307898
-0.000022 -28.898006 25.853373
-0.000022 -29.372282 26.368532
-0.000022 -30.337183 25.853373
-0.000022 -31.400211 24.307898
-12.297782 -27.035582 24.307898
-11.677801 -26.658413 25.853373
-11.627994 -27.095930 26.368532
-11.919785 -27.986052 25.853373
-12.324603 -28.966694 24.307898
-21.514399 -20.807875 24.307898
-20.815662 -20.517586 25.853373
-20.942654 -20.854321 26.368532
-21.550459 -21.539402 25.853373
-22.294168 -22.294149 24.307898
-27.300539 -11.502947 24.307898
-26.770201 -11.342471 25.853373
-27.129066 -11.528623 26.368532
-27.990211 -11.907349 25.853373
-28.966713 -12.324586 24.307898
-29.306883 -0.000005 24.307898
-28.898026 -0.000005 25.853373
-29.372301 -0.000005 26.368532
-30.337202 -0.000005 25.853373
-31.400230 -0.000005 24.307898
-27.035601 11.502937 24.307898
-26.658432 11.342462 25.853373
-27.095949 11.528613 26.368532
-27.986071 11.907339 25.853373
-28.966713 12.324576 24.307898
-20.807894 20.807867 24.307898
-20.517605 20.517578 25.853373
-20.854340 20.854313 26.368532
-21.539421 21.539394 25.853373
-22.294168 22.294142 24.307898
-11.502964 27.035574 24.307898
-11.342488 26.658405 25.853373
-11.528640 27.095922 26.368532
-11.907366 27.986044 25.853373
-12.324603 28.966686 24.307898
-0.000022 29.306856 24.307898
-0.000022 28.897999 25.853373
-0.000022 29.372274 26.368532
-0.000022 30.337175 25.853373
-0.000022 31.400204 24.307898
11.502920 27.035574 24.307898
11.342444 26.658405 25.853373
11.528596 27.095922 26.368532
11.907322 27.986044 25.853373
12.324559 28.966686 24.307898
20.807848 20.807867 24.307898
20.517559 20.517578 25.853373
20.854294 20.854313 26.368532
21.539375 21.539394 25.853373
22.294123 22.294142 24.307898
27.035555 11.502937 24.307898
26.658386 11.342462 25.853373
27.095903 11.528613 26.368532
27.986025 11.907339 25.853373
28.966667 12.324576 24.307898
35.243439 -0.000005 16.089876
38.596066 -0.000005 8.019041
40.967434 -0.000005 0.242580
41.866920 -0.000005 -7.092312
32.512070 -13.833063 16.089876
35.604870 -15.148971 8.019041
37.792458 -16.079731 0.242580
38.622234 -16.432779 -7.092312
25.022837 -25.022863 16.089876
27.403200 -27.403227 8.019041
29.086872 -29.086899 0.242580
29.725506 -29.725533 -7.092312
13.833036 -32.512096 16.089876
15.148944 -35.604897 8.019041
16.079704 -37.792484 0.242580
16.432753 -38.622261 -7.092312
-0.000022 -35.243465 16.089876
-0.000022 -38.596092 8.019041
-0.000022 -40.967461 0.242580
-0.000022 -41.866947 -7.092312
-13.833080 -32.512096 16.089876
-15.148988 -35.604897 8.019041
-16.079750 -37.792484 0.242580
-16.432798 -38.622261 -7.092312
-25.022882 -25.022863 16.089876
-27.403246 -27.403227 8.019041
-29.086918 -29.086899 0.242580
-29.725552 -29.725533 -7.092312
-32.512115 -13.833063 16.089876
-35.604916 -15.148971 8.019041
-37.792503 -16.079731 0.242580
-38.622280 -16.432779 -7.092312
-35.243484 -0.000005 16.089876
-38.596111 -0.000005 8.019041
-40.967480 -0.000005 0.242580
-41.866966 -0.000005 -7.092312
-32.512115 13.833054 16.089876
-35.604916 15.148961 8.019041
-37.792503 16.079723 0.242580
-38.622280 16.432772 -7.092312
-25.022882 25.022856 16.089876
-27.403246 27.403219 8.019041
-29.086918 29.086891 0.242580
-29.725552 29.725525 -7.092312
-13.833080 32.512089 16.089876
-15.148988 35.604889 8.019041
-16.079750 37.792477 0.242580
-16.432798 38.622253 -7.092312
-0.000022 35.243458 16.089876
-0.000022 38.596085 8.019041
-0.000022 40.967453 0.242580
-0.000022 41.866940 -7.092312
13.833036 32.512089 16.089876
15.148944 35.604889 8.019041
16.079704 37.792477 0.242580
16.432753 38.622253 -7.092312
25.022837 25.022856 16.089876
27.403200 27.403219 8.019041
29.086872 29.086891 0.242580
29.725506 29.725525 -7.092312
32.512070 13.833054 16.089876
35.604870 15.148961 8.019041
37.792458 16.079723 0.242580
38.622234 16.432772 -7.092312
40.231491 -0.000005 -13.298759
36.633553 -0.000005 -17.886133
33.035614 -0.000005 -21.001621
31.400185 -0.000005 -22.792416
37.113548 -15.790874 -13.298759
33.794449 -14.378683 -17.886133
30.475351 -12.966492 -21.001621
28.966667 -12.324586 -22.792416
28.564352 -28.564379 -13.298759
26.009815 -26.009842 -17.886133
23.455278 -23.455305 -21.001621
22.294123 -22.294149 -22.792416
15.790848 -37.113575 -13.298759
14.378656 -33.794476 -17.886133
12.966465 -30.475378 -21.001621
12.324559 -28.966694 -22.792416
-0.000022 -40.231518 -13.298759
-0.000022 -36.633579 -17.886133
-0.000022 -33.035641 -21.001621
-0.000022 -31.400211 -22.792416
-15.790892 -37.113575 -13.298759
-14.378700 -33.794476 -17.886133
-12.966509 -30.475378 -21.001621
-12.324603 -28.966694 -22.792416
-28.564398 -28.564379 -13.298759
-26.009861 -26.009842 -17.886133
-23.455324 -23.455305 -21.001621
-22.294168 -22.294149 -22.792416
-37.113594 -15.790874 -13.298759
-33.794495 -14.378683 -17.886133
-30.475397 -12.966492 -21.001621
-28.966713 -12.324586 -22.792416
-40.231537 -0.000005 -13.298759
-36.633598 -0.000005 -17.886133
-33.035660 -0.000005 -21.001621
-31.400230 -0.000005 -22.792416
-37.113594 15.790865 -13.298759
-33.794495 14.378674 -17.886133
-30.475397 12.966482 -21.001621
-28.966713 12.324576 -22.792416
-28.564398 28.564371 -13.298759
-26.009861 26.009834 -17.886133
-23.455324 23.455297 -21.001621
-22.294168 22.294142 -22.792416
-15.790892 37.113567 -13.298759
-14.378700 33.794468 -17.886133
-12.966509 30.475370 -21.001621
-12.324603 28.966686 -22.792416
-0.000022 40.231510 -13.298759
-0.000022 36.633572 -17.886133
-0.000022 33.035633 -21.001621
-0.000022 31.400204 -22.792416
15.790848 37.113567 -13.298759
14.378656 33.794468 -17.886133
12.966465 30.475370 -21.001621
12.324559 28.966686 -22.792416
28.564352 28.564371 -13.298759
26.009815 26.009834 -17.886133
23.455278 23.455297 -21.001621
22.294123 22.294142 -22.792416
37.113548 15.790865 -13.298759
33.794449 14.378674 -17.886133
30.475351 12.966482 -21.001621
28.966667 12.324576 -22.792416
30.688772 -0.000005 -23.945391
26.886404 -0.000005 -24.951180
17.490873 -0.000005 -25.662590
-0.000022 -0.000005 -25.932436
28.310390 -12.045358 -23.945391
24.802706 -10.552928 -24.951180
16.135328 -6.865182 -25.662590
21.789021 -21.789047 -23.945391
19.089340 -19.089367 -24.951180
12.418514 -12.418541 -25.662590
12.045331 -28.310417 -23.945391
10.552901 -24.802732 -24.951180
6.865155 -16.135355 -25.662590
-0.000022 -30.688799 -23.945391
-0.000022 -26.886431 -24.951180
-0.000022 -17.490900 -25.662590
-12.045375 -28.310417 -23.945391
-10.552945 -24.802732 -24.951180
-6.865199 -16.135355 -25.662590
-21.789066 -21.789047 -23.945391
-19.089386 -19.089367 -24.951180
-12.418558 -12.418541 -25.662590
-28.310436 -12.045358 -23.945391
-24.802752 -10.552928 -24.951180
-16.135374 -6.865182 -25.662590
-30.688818 -0.000005 -23.945391
-26.886450 -0.000005 -24.951180
-17.490919 -0.000005 -25.662590
-28.310436 12.045348 -23.945391
-24.802752 10.552918 -24.951180
-16.135374 6.865172 -25.662590
-21.789066 21.789040 -23.945391
-19.089386 19.089359 -24.951180
-12.418558 12.418531 -25.662590
-12.045375 28.310410 -23.945391
-10.552945 24.802725 -24.951180
-6.865199 16.135347 -25.662590
-0.000022 30.688791 -23.945391
-0.000022 26.886423 -24.951180
-0.000022 17.490892 -25.662590
12.045331 28.310410 -23.945391
10.552901 24.802725 -24.951180
6.865155 16.135347 -25.662590
21.789021 21.789040 -23.945391
19.089340 19.089359 -24.951180
12.418514 12.418531 -25.662590
28.310390 12.045348 -23.945391
24.802706 10.552918 -24.951180
16.135328 6.865172 -25.662590
-33.493580 -0.000005 16.457846
-43.273434 -0.000005 16.384249
-50.502022 -0.000005 15.869093
-54.983097 -0.000005 14.470800
-56.520397 -0.000005 11.747812
-33.166492 -3.532528 17.193789
-43.564747 -3.532528 17.108694
-51.197079 -3.532528 16.513041
-55.897915 -3.532528 14.896269
-57.501656 -3.532528 11.747812
-32.446903 -4.710036 18.812860
-44.205627 -4.710036 18.702471
-52.726204 -4.710036 17.929731
-57.910511 -4.710036 15.832293
-59.660416 -4.710036 11.747812
-31.727316 -3.532528 20.431932
-44.846512 -3.532528 20.296244
-54.255329 -3.532528 19.346415
-59.923107 -3.532528 16.768320
-61.819183 -3.532528 11.747812
-31.400230 -0.000005 21.167875
-45.137821 -0.000005 21.020689
-54.950386 -0.000005 19.990366
-60.837925 -0.000005 17.193789
-62.800438 -0.000005 11.747812
-31.727316 3.532519 20.431932
-44.846512 3.532519 20.296244
-54.255329 3.532519 19.346415
-59.923107 3.532519 16.768320
-61.819183 3.532519 11.747812
-32.446903 4.710027 18.812860
-44.205627 4.710027 18.702471
-52.726204 4.710027 17.929731
-57.910511 4.710027 15.832293
-59.660416 4.710027 11.747812
-33.166492 3.532519 17.193789
-43.564747 3.532519 17.108694
-51.197079 3.532519 16.513041
-55.897915 3.532519 14.896269
-57.501656 3.532519 11.747812
-55.702682 -0.000005 7.479349
-53.118706 -0.000005 2.327751
-48.572220 -0.000005 -2.823845
-41.866966 -0.000005 -7.092312
-56.594501 -3.532528 7.067297
-53.752434 -3.532528 1.699133
-48.794537 -3.532528 -3.600035
-41.539879 -3.532528 -8.073568
-58.556503 -4.710036 6.160784
-55.146641 -4.710036 0.316175
-49.283630 -4.710036 -5.307652
-40.820293 -4.710036 -10.232332
-60.518505 -3.532528 5.254272
-56.540840 -3.532528 -1.066784
-49.772728 -3.532528 -7.015266
-40.100704 -3.532528 -12.391096
-61.410324 -0.000005 4.842220
-57.174568 -0.000005 -1.695402
-49.995041 -0.000005 -7.791456
-39.773617 -0.000005 -13.372353
-60.518505 3.532519 5.254272
-56.540840 3.532519 -1.066784
-49.772728 3.532519 -7.015266
-40.100704 3.532519 -12.391096
-58.556503 4.710027 6.160784
-55.146641 4.710027 0.316175
-49.283630 4.710027 -5.307652
-40.820293 4.710027 -10.232332
-56.594501 3.532519 7.067297
-53.752434 3.532519 1.699133
-48.794537 3.532519 -3.600035
-41.539879 3.532519 -8.073568
35.586880 -0.000005 3.897760
45.628403 -0.000005 6.203714
49.978642 -0.000005 11.747812
52.366367 -0.000005 18.469419
56.520351 -0.000005 24.307898
35.586880 -7.771556 1.199305
46.395012 -7.017215 4.202871
50.959900 -5.357666 10.582571
53.562275 -3.698115 18.047785
58.482864 -2.943774 24.307898
35.586880 -10.362073 -4.737295
48.081543 -9.356285 -0.198984
53.118660 -7.143552 8.019041
56.193268 -4.930819 17.120192
62.800392 -3.925031 24.307898
35.586880 -7.771556 -10.673897
49.768078 -7.017215 -4.600840
55.277428 -5.357666 5.455505
58.824261 -3.698115 16.192598
67.117920 -2.943774 24.307898
35.586880 -0.000005 -13.372353
50.534687 -0.000005 -6.601683
56.258682 -0.000005 4.290264
60.020164 -0.000005 15.770967
69.080429 -0.000005 24.307898
35.586880 7.771547 -10.673897
49.768078 7.017206 -4.600840
55.277428 5.357656 5.455505
58.824261 3.698106 16.192598
67.117920 2.943765 24.307898
35.586880 10.362063 -4.737295
48.081543 9.356276 -0.198984
53.118660 7.143542 8.019041
56.193268 4.930809 17.120192
62.800392 3.925021 24.307898
35.586880 7.771547 1.199305
46.395012 7.017206 4.202871
50.959900 5.357656 10.582571
53.562275 3.698106 18.047785
58.482864 2.943765 24.307898
58.024940 -0.000005 25.191027
59.137035 -0.000005 25.485403
59.464123 -0.000005 25.191027
58.613697 -0.000005 24.307898
60.126720 -2.759789 25.234148
61.109772 -2.355020 25.554396
61.139156 -1.950252 25.251398
59.922039 -1.766266 24.307898
64.750641 -3.679717 25.329016
65.449783 -3.140026 25.706186
64.824234 -2.600335 25.384211
62.800392 -2.355021 24.307898
69.374557 -2.759789 25.423883
69.789803 -2.355020 25.857977
68.509308 -1.950252 25.517031
65.678749 -1.766266 24.307898
71.476341 -0.000005 25.467005
71.762535 -0.000005 25.926970
70.184349 -0.000005 25.577402
66.987091 -0.000005 24.307898
69.374557 2.759779 25.423883
69.789803 2.355011 25.857977
68.509308 1.950243 25.517031
65.678749 1.766257 24.307898
64.750641 3.679707 25.329016
65.449783 3.140016 25.706186
64.824234 2.600325 25.384211
62.800392 2.355011 24.307898
60.126720 2.759779 25.234148
61.109772 2.355011 25.554396
61.139156 1.950243 25.251398
59.922039 1.766257 24.307898
-0.000022 -0.000005 40.008003
7.130442 -0.000005 38.977684
6.803357 -0.000005 36.475479
4.121255 -0.000005 33.384521
4.186673 -0.000005 30.587938
6.580315 -2.806163 38.977684
6.278302 -2.676954 36.475479
3.802684 -1.620090 33.384521
3.862204 -1.643282 30.587938
5.069231 -5.069258 38.977684
4.836264 -4.836291 36.475479
2.928293 -2.928319 33.384521
2.972531 -2.972558 30.587938
2.806136 -6.580341 38.977684
2.676927 -6.278329 36.475479
1.620063 -3.802711 33.384521
1.643255 -3.862231 30.587938
-0.000022 -7.130469 38.977684
-0.000022 -6.803383 36.475479
-0.000022 -4.121282 33.384521
-0.000022 -4.186699 30.587938
-2.806180 -6.580341 38.977684
-2.676972 -6.278329 36.475479
-1.620107 -3.802711 33.384521
-1.643300 -3.862231 30.587938
-5.069275 -5.069258 38.977684
-4.836308 -4.836291 36.475479
-2.928337 -2.928319 33.384521
-2.972575 -2.972558 30.587938
-6.580359 -2.806163 38.977684
-6.278346 -2.676954 36.475479
-3.802729 -1.620090 33.384521
-3.862248 -1.643282 30.587938
-7.130486 -0.000005 38.977684
-6.803401 -0.000005 36.475479
-4.121299 -0.000005 33.384521
-4.186717 -0.000005 30.587938
-6.580359 2.806154 38.977684
-6.278346 2.676945 36.475479
-3.802729 1.620080 33.384521
-3.862248 1.643273 30.587938
-5.069275 5.069248 38.977684
-4.836308 4.836281 36.475479
-2.928337 2.928310 33.384521
-2.972575 2.972548 30.587938
-2.806180 6.580332 38.977684
-2.676972 6.278319 36.475479
-1.620107 3.802702 33.384521
-1.643300 3.862221 30.587938
-0.000022 7.130459 38.977684
-0.000022 6.803374 36.475479
-0.000022 4.121273 33.384521
-0.000022 4.186690 30.587938
2.806136 6.580332 38.977684
2.676927 6.278319 36.475479
1.620063 3.802702 33.384521
1.643255 3.862221 30.587938
5.069231 5.069248 38.977684
4.836264 4.836281 36.475479
2.928293 2.928310 33.384521
2.972531 2.972548 30.587938
6.580315 2.806154 38.977684
6.278302 2.676945 36.475479
3.802684 1.620080 33.384521
3.862204 1.643273 30.587938
9.550874 -0.000005 28.723551
17.270090 -0.000005 27.447916
24.204304 -0.000005 26.172285
27.213490 -0.000005 24.307898
8.810680 -3.748731 28.723551
15.931659 -6.778524 27.447916
22.328468 -9.500202 26.172285
25.104443 -10.681308 24.307898
6.781115 -6.781141 28.723551
12.261759 -12.261786 27.447916
17.185047 -17.185074 26.172285
19.321571 -19.321598 24.307898
3.748704 -8.810707 28.723551
6.778498 -15.931685 27.447916
9.500175 -22.328495 26.172285
10.681281 -25.104469 24.307898
-0.000022 -9.550900 28.723551
-0.000022 -17.270117 27.447916
-0.000022 -24.204330 26.172285
-0.000022 -27.213516 24.307898
-3.748749 -8.810707 28.723551
-6.778542 -15.931685 27.447916
-9.500219 -22.328495 26.172285
-10.681325 -25.104469 24.307898
-6.781158 -6.781141 28.723551
-12.261803 -12.261786 27.447916
-17.185093 -17.185074 26.172285
-19.321617 -19.321598 24.307898
-8.810724 -3.748731 28.723551
-15.931703 -6.778524 27.447916
-22.328514 -9.500202 26.172285
-25.104488 -10.681308 24.307898
-9.550918 -0.000005 28.723551
-17.270136 -0.000005 27.447916
-24.204350 -0.000005 26.172285
-27.213535 -0.000005 24.307898
-8.810724 3.748722 28.723551
-15.931703 6.778515 27.447916
-22.328514 9.500193 26.172285
-25.104488 10.681298 24.307898
-6.781158 6.781132 28.723551
-12.261803 12.261776 27.447916
-17.185093 17.185066 26.172285
-19.321617 19.321590 24.307898
-3.748749 8.810698 28.723551
-6.778542 15.931676 27.447916
-9.500219 22.328487 26.172285
-10.681325 25.104462 24.307898
-0.000022 9.550891 28.723551
-0.000022 17.270109 27.447916
-0.000022 24.204323 26.172285
-0.000022 27.213509 24.307898
3.748704 8.810698 28.723551
6.778498 15.931676 27.447916
9.500175 22.328487 26.172285
10.681281 25.104462 24.307898
6.781115 6.781132 28.723551
12.261759 12.261776 27.447916
17.185047 17.185066 26.172285
19.321571 19.321590 24.307898
8.810680 3.748722 28.723551
15.931659 6.778515 27.447916
22.328468 9.500193 26.172285
25.104443 10.681298 24.307898
-29.306883 -0.000005 24.307898
-28.898026 -0.000005 25.853373
-29.306883 -0.000005 24.307898
-28.898026 -0.000005 25.853373
-29.372301 -0.000005 26.368532
-28.898026 -0.000005 25.853373
-29.372301 -0.000005 26.368532
-30.337202 -0.000005 25.853373
-29.372301 -0.000005 26.368532
-30.337202 -0.000005 25.853373
-31.400230 -0.000005 24.307898
-30.337202 -0.000005 25.853373
29.306837 -0.000005 24.307898
28.897980 -0.000005 25.853373
28.897980 -0.000005 25.853373
28.897980 -0.000005 25.853373
29.372255 -0.000005 26.368532
29.372255 -0.000005 26.368532
29.372255 -0.000005 26.368532
30.337156 -0.000005 25.853373
30.337156 -0.000005 25.853373
30.337156 -0.000005 25.853373
31.400185 -0.000005 24.307898
31.400185 -0.000005 24.307898
-31.400230 -0.000005 24.307898
-35.243484 -0.000005 16.089876
-31.400230 -0.000005 24.307898
-35.243484 -0.000005 16.089876
-38.596111 -0.000005 8.019041
-35.243484 -0.000005 16.089876
-38.596111 -0.000005 8.019041
-40.967480 -0.000005 0.242580
-38.596111 -0.000005 8.019041
-40.967480 -0.000005 0.242580
-41.866966 -0.000005 -7.092312
-40.967480 -0.000005 0.242580
31.400185 -0.000005 24.307898
35.243439 -0.000005 16.089876
35.243439 -0.000005 16.089876
35.243439 -0.000005 16.089876
38.596066 -0.000005 8.019041
38.596066 -0.000005 8.019041
38.596066 -0.000005 8.019041
40.967434 -0.000005 0.242580
40.967434 -0.000005 0.242580
40.967434 -0.000005 0.242580
41.866920 -0.000005 -7.092312
41.866920 -0.000005 -7.092312
-41.866966 -0.000005 -7.092312
-40.231537 -0.000005 -13.298759
-41.866966 -0.000005 -7.092312
-40.231537 -0.000005 -13.298759
-36.633598 -0.000005 -17.886133
-40.231537 -0.000005 -13.298759
-36.633598 -0.000005 -17.886133
-33.035660 -0.000005 -21.001621
-36.633598 -0.000005 -17.886133
-33.035660 -0.000005 -21.001621
-31.400230 -0.000005 -22.792416
-33.035660 -0.000005 -21.001621
41.866920 -0.000005 -7.092312
40.231491 -0.000005 -13.298759
40.231491 -0.000005 -13.298759
40.231491 -0.000005 -13.298759
36.633553 -0.000005 -17.886133
36.633553 -0.000005 -17.886133
36.633553 -0.000005 -17.886133
33.035614 -0.000005 -21.001621
33.035614 -0.000005 -21.001621
33.035614 -0.000005 -21.001621
31.400185 -0.000005 -22.792416
31.400185 -0.000005 -22.792416
31.400185 -0.000005 -22.792416
28.966667 -12.324586 -22.792416
31.400185 -0.000005 -22.792416
-0.000022 -0.000005 -25.932436
28.966667 -12.324586 -22.792416
22.294123 -22.294149 -22.792416
28.966667 -12.324586 -22.792416
-0.000022 -0.000005 -25.932436
-0.000022 -0.000005 -25.932436
22.294123 -22.294149 -22.792416
12.324559 -28.966694 -22.792416
22.294123 -22.294149 -22.792416
-0.000022 -0.000005 -25.932436
-0.000022 -0.000005 -25.932436
-0.000022 -0.000005 -25.932436
12.324559 -28.966694 -22.792416
-0.000022 -31.400211 -22.792416
12.324559 -28.966694 -22.792416
-0.000022 -0.000005 -25.932436
-0.000022 -0.000005 -25.932436
-0.000022 -0.000005 -25.932436
-0.000022 -31.400211 -22.792416
-12.324603 -28.966694 -22.792416
-0.000022 -31.400211 -22.792416
-0.000022 -0.000005 -25.932436
-0.000022 -0.000005 -25.932436
-0.000022 -0.000005 -25.932436
-12.324603 -28.966694 -22.792416
-22.294168 -22.294149 -22.792416
-12.324603 -28.966694 -22.792416
-0.000022 -0.000005 -25.932436
-0.000022 -0.000005 -25.932436
-0.000022 -0.000005 -25.932436
-22.294168 -22.294149 -22.792416
-28.966713 -12.324586 -22.792416
-22.294168 -22.294149 -22.792416
-0.000022 -0.000005 -25.932436
-0.000022 -0.000005 -25.932436
-0.000022 -0.000005 -25.932436
-28.966713 -12.324586 -22.792416
-31.400230 -0.000005 -22.792416
-28.966713 -12.324586 -22.792416
-0.000022 -0.000005 -25.932436
-0.000022 -0.000005 -25.932436
-0.000022 -0.000005 -25.932436
-31.400230 -0.000005 -22.792416
-28.966713 12.324576 -22.792416
-30.688818 -0.000005 -23.945391
-31.400230 -0.000005 -22.792416
-30.688818 -0.000005 -23.945391
-26.886450 -0.000005 -24.951180
-30.688818 -0.000005 -23.945391
-26.886450 -0.000005 -24.951180
-17.490919 -0.000005 -25.662590
-26.886450 -0.000005 -24.951180
-17.490919 -0.000005 -25.662590
-0.000022 -0.000005 -25.932436
-17.490919 -0.000005 -25.662590
-28.966713 12.324576 -22.792416
-22.294168 22.294142 -22.792416
-28.966713 12.324576 -22.792416
-0.000022 -0.000005 -25.932436
-0.000022 -0.000005 -25.932436
-22.294168 22.294142 -22.792416
-12.324603 28.966686 -22.792416
-22.294168 22.294142 -22.792416
-0.000022 -0.000005 -25.932436
-0.000022 -0.000005 -25.932436
-0.000022 -0.000005 -25.932436
-12.324603 28.966686 -22.792416
-0.000022 31.400204 -22.792416
-12.324603 28.966686 -22.792416
-0.000022 -0.000005 -25.932436
-0.000022 -0.000005 -25.932436
-0.000022 -0.000005 -25.932436
-0.000022 31.400204 -22.792416
12.324559 28.966686 -22.792416
-0.000022 31.400204 -22.792416
-0.000022 -0.000005 -25.932436
-0.000022 -0.000005 -25.932436
-0.000022 -0.000005 -25.932436
12.324559 28.966686 -22.792416
22.294123 22.294142 -22.792416
12.324559 28.966686 -22.792416
-0.000022 -0.000005 -25.932436
-0.000022 -0.000005 -25.932436
-0.000022 -0.000005 -25.932436
22.294123 22.294142 -22.792416
28.966667 12.324576 -22.792416
22.294123 22.294142 -22.792416
-0.000022 -0.000005 -25.932436
-0.000022 -0.000005 -25.932436
-0.000022 -0.000005 -25.932436
28.966667 12.324576 -22.792416
31.400185 -0.000005 -22.792416
30.688772 -0.000005 -23.945391
30.688772 -0.000005 -23.945391
28.966667 12.324576 -22.792416
30.688772 -0.000005 -23.945391
26.886404 -0.000005 -24.951180
26.886404 -0.000005 -24.951180
26.886404 -0.000005 -24.951180
17.490873 -0.000005 -25.662590
17.490873 -0.000005 -25.662590
17.490873 -0.000005 -25.662590
-0.000022 -0.000005 -25.932436
-0.000022 -0.000005 -25.932436
-0.000022 -0.000005 -25.932436
-33.493580 -0.000005 16.457846
-43.273434 -0.000005 16.384249
-43.273434 -0.000005 16.384249
-43.273434 -0.000005 16.384249
-50.502022 -0.000005 15.869093
-50.502022 -0.000005 15.869093
-50.502022 -0.000005 15.869093
-54.983097 -0.000005 14.470800
-54.983097 -0.000005 14.470800
-54.983097 -0.000005 14.470800
-56.520397 -0.000005 11.747812
-56.520397 -0.000005 11.747812
-56.520397 -0.000005 11.747812
-55.702682 -0.000005 7.479349
-55.702682 -0.000005 7.479349
-55.702682 -0.000005 7.479349
-53.118706 -0.000005 2.327751
-53.118706 -0.000005 2.327751
-53.118706 -0.000005 2.327751
-48.572220 -0.000005 -2.823845
-48.572220 -0.000005 -2.823845
-48.572220 -0.000005 -2.823845
-41.866966 -0.000005 -7.092312
-41.866966 -0.000005 -7.092312
35.586880 -0.000005 -13.372353
50.534687 -0.000005 -6.601683
35.586880 -0.000005 -13.372353
50.534687 -0.000005 -6.601683
56.258682 -0.000005 4.290264
50.534687 -0.000005 -6.601683
56.258682 -0.000005 4.290264
60.020164 -0.000005 15.770967
56.258682 -0.000005 4.290264
60.020164 -0.000005 15.770967
69.080429 -0.000005 24.307898
60.020164 -0.000005 15.770967
69.080429 -0.000005 24.307898
71.476341 -0.000005 25.467005
69.080429 -0.000005 24.307898
71.476341 -0.000005 25.467005
71.762535 -0.000005 25.926970
71.476341 -0.000005 25.467005
71.762535 -0.000005 25.926970
70.184349 -0.000005 25.577402
71.762535 -0.000005 25.926970
70.184349 -0.000005 25.577402
66.987091 -0.000005 24.307898
70.184349 -0.000005 25.577402
-0.000022 -0.000005 40.008003
-0.000022 -0.000005 40.008003
-0.000022 -0.000005 40.008003
-0.000022 -0.000005 40.008003
-0.000022 -0.000005 40.008003
-0.000022 -0.000005 40.008003
-0.000022 -0.000005 40.008003
-0.000022 -0.000005 40.008003
-0.000022 -0.000005 40.008003
-0.000022 -0.000005 40.008003
-0.000022 -0.000005 40.008003
-0.000022 -0.000005 40.008003
-0.000022 -0.000005 40.008003
-0.000022 -0.000005 40.008003
-0.000022 -0.000005 40.008003
-0.000022 -0.000005 40.008003
-0.000022 -0.000005 40.008003
-0.000022 -0.000005 40.008003
-0.000022 -0.000005 40.008003
-0.000022 -0.000005 40.008003
-0.000022 -0.000005 40.008003
-0.000022 -0.000005 40.008003
-0.000022 -0.000005 40.008003
-7.130486 -0.000005 38.977684
-7.130486 -0.000005 38.977684
-6.803401 -0.000005 36.475479
-7.130486 -0.000005 38.977684
-6.803401 -0.000005 36.475479
-4.121299 -0.000005 33.384521
-6.803401 -0.000005 36.475479
-4.121299 -0.000005 33.384521
-4.186717 -0.000005 30.587938
-4.121299 -0.000005 33.384521
-0.000022 -0.000005 40.008003
-0.000022 -0.000005 40.008003
-0.000022 -0.000005 40.008003
-0.000022 -0.000005 40.008003
-0.000022 -0.000005 40.008003
-0.000022 -0.000005 40.008003
-0.000022 -0.000005 40.008003
-0.000022 -0.000005 40.008003
-0.000022 -0.000005 40.008003
-0.000022 -0.000005 40.008003
-0.000022 -0.000005 40.008003
-0.000022 -0.000005 40.008003
-0.000022 -0.000005 40.008003
-0.000022 -0.000005 40.008003
-0.000022 -0.000005 40.008003
-0.000022 -0.000005 40.008003
-0.000022 -0.000005 40.008003
-0.000022 -0.000005 40.008003
-0.000022 -0.000005 40.008003
-0.000022 -0.000005 40.008003
7.130442 -0.000005 38.977684
7.130442 -0.000005 38.977684
-0.000022 -0.000005 40.008003
7.130442 -0.000005 38.977684
6.803357 -0.000005 36.475479
6.803357 -0.000005 36.475479
6.803357 -0.000005 36.475479
4.121255 -0.000005 33.384521
4.121255 -0.000005 33.384521
4.121255 -0.000005 33.384521
4.186673 -0.000005 30.587938
4.186673 -0.000005 30.587938
4.186673 -0.000005 30.587938
3.862204 -1.643282 30.587938
4.186673 -0.000005 30.587938
3.862204 -1.643282 30.587938
2.972531 -2.972558 30.587938
3.862204 -1.643282 30.587938
2.972531 -2.972558 30.587938
1.643255 -3.862231 30.587938
2.972531 -2.972558 30.587938
1.643255 -3.862231 30.587938
-0.000022 -4.186699 30.587938
1.643255 -3.862231 30.587938
-0.000022 -4.186699 30.587938
-1.643300 -3.862231 30.587938
-0.000022 -4.186699 30.587938
-1.643300 -3.862231 30.587938
-2.972575 -2.972558 30.587938
-1.643300 -3.862231 30.587938
-2.972575 -2.972558 30.587938
-3.862248 -1.643282 30.587938
-2.972575 -2.972558 30.587938
-3.862248 -1.643282 30.587938
-4.186717 -0.000005 30.587938
-3.862248 -1.643282 30.587938
-4.186717 -0.000005 30.587938
-3.862248 1.643273 30.587938
-9.550918 -0.000005 28.723551
-4.186717 -0.000005 30.587938
-9.550918 -0.000005 28.723551
-17.270136 -0.000005 27.447916
-9.550918 -0.000005 28.723551
-17.270136 -0.000005 27.447916
-24.204350 -0.000005 26.172285
-17.270136 -0.000005 27.447916
-24.204350 -0.000005 26.172285
-27.213535 -0.000005 24.307898
-24.204350 -0.000005 26.172285
-3.862248 1.643273 30.587938
-2.972575 2.972548 30.587938
-3.862248 1.643273 30.587938
-2.972575 2.972548 30.587938
-1.643300 3.862221 30.587938
-2.972575 2.972548 30.587938
-1.643300 3.862221 30.587938
-0.000022 4.186690 30.587938
-1.643300 3.862221 30.587938
-0.000022 4.186690 30.587938
1.643255 3.862221 30.587938
-0.000022 4.186690 30.587938
1.643255 3.862221 30.587938
2.972531 2.972548 30.587938
1.643255 3.862221 30.587938
2.972531 2.972548 30.587938
3.862204 1.643273 30.587938
2.972531 2.972548 30.587938
3.862204 1.643273 30.587938
4.186673 -0.000005 30.587938
9.550874 -0.000005 28.723551
9.550874 -0.000005 28.723551
3.862204 1.643273 30.587938
9.550874 -0.000005 28.723551
17.270090 -0.000005 27.447916
17.270090 -0.000005 27.447916
17.270090 -0.000005 27.447916
24.204304 -0.000005 26.172285
24.204304 -0.000005 26.172285
24.204304 -0.000005 26.172285
27.213490 -0.000005 24.307898
27.213490 -0.000005 24.307898
3 0 5 6
3 6 1 0
3 1 6 7
3 7 2 1
3 2 7 8
3 8 3 2
3 3 8 9
3 9 4 3
3 5 10 11
3 11 6 5
3 6 11 12
3 12 7 6
3 7 12 13
3 13 8 7
3 8 13 14
3 14 9 8
3 10 15 16
3 16 11 10
3 11 16 17
3 17 12 11
3 12 17 18
3 18 13 12
3 13 18 19
3 19 14 13
3 15 20 21
3 21 16 15
3 16 21 22
3 22 17 16
3 17 22 23
3 23 18 17
3 18 23 24
3 24 19 18
3 20 25 26
3 26 21 20
3 21 26 27
3 27 22 21
3 22 27 28
3 28 23 22
3 23 28 29
3 29 24 23
3 25 30 31
3 31 26 25
3 26 31 32
3 32 27 26
3 27 32 33
3 33 28 27
3 28 33 34
3 34 29 28
3 30 35 36
3 36 31 30
3 31 36 37
3 37 32 31
3 32 37 38
3 38 33 32
3 33 38 39
3 39 34 33
3 35 40 41
3 41 36 35
3 36 41 42
3 42 37 36
3 37 42 43
3 43 38 37
3 38 43 44
3 44 39 38
3 530 45 46
3 46 531 532
3 533 46 47
3 47 534 535
3 536 47 48
3 48 537 538
3 539 48 49
3 49 540 541
3 45 50 51
3 51 46 45
3 46 51 52
3 52 47 46
3 47 52 53
3 53 48 47
3 48 53 54
3 54 49 48
3 50 55 56
3 56 51 50
3 51 56 57
3 57 52 51
3 52 57 58
3 58 53 52
3 53 58 59
3 59 54 53
3 55 60 61
3 61 56 55
3 56 61 62
3 62 57 56
3 57 62 63
3 63 58 57
3 58 63 64
3 64 59 58
3 60 65 66
3 66 61 60
3 61 66 67
3 67 62 61
3 62 67 68
3 68 63 62
3 63 68 69
3 69 64 63
3 65 70 71
3 71 66 65
3 66 71 72
3 72 67 66
3 67 72 73
3 73 68 67
3 68 73 74
3 74 69 68
3 70 75 76
3 76 71 70
3 71 76 77
3 77 72 71
3 72 77 78
3 78 73 72
3 73 78 79
3 79 74 73
3 75 542 543
3 544 76 75
3 76 545 546
3 547 77 76
3 77 548 549
3 550 78 77
3 78 551 552
3 553 79 78
3 4 9 84
3 84 80 4
3 80 84 85
3 85 81 80
3 81 85 86
3 86 82 81
3 82 86 87
3 87 83 82
3 9 14 88
3 88 84 9
3 84 88 89
3 89 85 84
3 85 89 90
3 90 86 85
3 86 90 91
3 91 87 86
3 14 19 92
3 92 88 14
3 88 92 93
3 93 89 88
3 89 93 94
3 94 90 89
3 90 94 95
3 95 91 90
3 19 24 96
3 96 92 19
3 92 96 97
3 97 93 92
3 93 97 98
3 98 94 93
3 94 98 99
3 99 95 94
3 24 29 100
3 100 96 24
3 96 100 101
3 101 97 96
3 97 101 102
3 102 98 97
3 98 102 103
3 103 99 98
3 29 34 104
3 104 100 29
3 100 104 105
3 105 101 100
3 101 105 106
3 106 102 101
3 102 106 107
3 107 103 102
3 34 39 108
3 108 104 34
3 104 108 109
3 109 105 104
3 105 109 110
3 110 106 105
3 106 110 111
3 111 107 106
3 39 44 112
3 112 108 39
3 108 112 113
3 113 109 108
3 109 113 114
3 114 110 109
3 110 114 115
3 115 111 110
3 554 49 116
3 116 555 556
3 557 116 117
3 117 558 559
3 560 117 118
3 118 561 562
3 563 118 119
3 119 564 565
3 49 54 120
3 120 116 49
3 116 120 121
3 121 117 116
3 117 121 122
3 122 118 117
3 118 122 123
3 123 119 118
3 54 59 124
3 124 120 54
3 120 124 125
3 125 121 120
3 121 125 126
3 126 122 121
3 122 126 127
3 127 123 122
3 59 64 128
3 128 124 59
3 124 128 129
3 129 125 124
3 125 129 130
3 130 126 125
3 126 130 131
3 131 127 126
3 64 69 132
3 132 128 64
3 128 132 133
3 133 129 128
3 129 133 134
3 134 130 129
3 130 134 135
3 135 131 130
3 69 74 136
3 136 132 69
3 132 136 137
3 137 133 132
3 133 137 138
3 138 134 133
3 134 138 139
3 139 135 134
3 74 79 140
3 140 136 74
3 136 140 141
3 141 137 136
3 137 141 142
3 142 138 137
3 138 142 143
3 143 139 138
3 79 566 567
3 568 140 79
3 140 569 570
3 571 141 140
3 141 572 573
3 574 142 141
3 142 575 576
3 577 143 142
3 83 87 148
3 148 144 83
3 144 148 149
3 149 145 144
3 145 149 150
3 150 146 145
3 146 150 151
3 151 147 146
3 87 91 152
3 152 148 87
3 148 152 153
3 153 149 148
3 149 153 154
3 154 150 149
3 150 154 155
3 155 151 150
3 91 95 156
3 156 152 91
3 152 156 157
3 157 153 152
3 153 157 158
3 158 154 153
3 154 158 159
3 159 155 154
3 95 99 160
3 160 156 95
3 156 160 161
3 161 157 156
3 157 161 162
3 162 158 157
3 158 162 163
3 163 159 158
3 99 103 164
3 164 160 99
3 160 164 165
3 165 161 160
3 161 165 166
3 166 162 161
3 162 166 167
3 167 163 162
3 103 107 168
3 168 164 103
3 164 168 169
3 169 165 164
3 165 169 170
3 170 166 165
3 166 170 171
3 171 167 166
3 107 111 172
3 172 168 107
3 168 172 173
3 173 169 168
3 169 173 174
3 174 170 169
3 170 174 175
3 175 171 170
3 111 115 176
3 176 172 111
3 172 176 177
3 177 173 172
3 173 177 178
3 178 174 173
3 174 178 179
3 179 175 174
3 578 119 180
3 180 579 580
3 581 180 181
3 181 582 583
3 584 181 182
3 182 585 586
3 587 182 183
3 183 588 589
3 119 123 184
3 184 180 119
3 180 184 185
3 185 181 180
3 181 185 186
3 186 182 181
3 182 186 187
3 187 183 182
3 123 127 188
3 188 184 123
3 184 188 189
3 189 185 184
3 185 189 190
3 190 186 185
3 186 190 191
3 191 187 186
3 127 131 192
3 192 188 127
3 188 192 193
3 193 189 188
3 189 193 194
3 194 190 189
3 190 194 195
3 195 191 190
3 131 135 196
3 196 192 131
3 192 196 197
3 197 193 192
3 193 197 198
3 198 194 193
3 194 198 199
3 199 195 194
3 135 139 200
3 200 196 135
3 196 200 201
3 201 197 196
3 197 201 202
3 202 198 197
3 198 202 203
3 203 199 198
3 139 143 204
3 204 200 139
3 200 204 205
3 205 201 200
3 201 205 206
3 206 202 201
3 202 206 207
3 207 203 202
3 143 590 591
3 592 204 143
3 204 593 594
3 595 205 204
3 205 596 597
3 598 206 205
3 206 599 600
3 601 207 206
3 602 603 212
3 212 208 604
3 208 212 213
3 213 209 208
3 209 213 214
3 214 210 209
3 210 214 211
3 211 605 210
3 606 607 215
3 215 212 608
3 212 215 216
3 216 213 212
3 213 216 217
3 217 214 213
3 214 217 609
3 610 211 214
3 611 612 218
3 218 215 613
3 215 218 219
3 219 216 215
3 216 219 220
3 220 217 216
3 217 220 614
3 615 616 217
3 617 618 221
3 221 218 619
3 218 221 222
3 222 219 218
3 219 222 223
3 223 220 219
3 220 223 620
3 621 622 220
3 623 624 224
3 224 221 625
3 221 224 225
3 225 222 221
3 222 225 226
3 226 223 222
3 223 226 626
3 627 628 223
3 629 630 227
3 227 224 631
3 224 227 228
3 228 225 224
3 225 228 229
3 229 226 225
3 226 229 632
3 633 634 226
3 635 636 230
3 230 227 637
3 227 230 231
3 231 228 227
3 228 231 232
3 232 229 228
3 229 232 638
3 639 640 229
3 641 642 233
3 233 230 643
3 230 233 234
3 234 231 230
3 231 234 235
3 235 232 231
3 232 235 644
3 645 646 232
3 647 648 236
3 236 649 650
3 651 236 237
3 237 652 653
3 654 237 238
3 238 655 656
3 657 238 211
3 211 658 659
3 660 661 239
3 239 236 662
3 236 239 240
3 240 237 236
3 237 240 241
3 241 238 237
3 238 241 663
3 664 211 238
3 665 666 242
3 242 239 667
3 239 242 243
3 243 240 239
3 240 243 244
3 244 241 240
3 241 244 668
3 669 670 241
3 671 672 245
3 245 242 673
3 242 245 246
3 246 243 242
3 243 246 247
3 247 244 243
3 244 247 674
3 675 676 244
3 677 678 248
3 248 245 679
3 245 248 249
3 249 246 245
3 246 249 250
3 250 247 246
3 247 250 680
3 681 682 247
3 683 684 251
3 251 248 685
3 248 251 252
3 252 249 248
3 249 252 253
3 253 250 249
3 250 253 686
3 687 688 250
3 689 690 254
3 254 251 691
3 251 254 255
3 255 252 251
3 252 255 256
3 256 253 252
3 253 256 692
3 693 694 253
3 695 696 697
3 698 254 699
3 254 700 701
3 702 255 254
3 255 703 704
3 705 256 255
3 256 706 707
3 708 709 256
3 257 262 263
3 263 258 257
3 258 263 264
3 264 259 258
3 259 264 265
3 265 260 259
3 260 265 266
3 266 261 260
3 262 267 268
3 268 263 262
3 263 268 269
3 269 264 263
3 264 269 270
3 270 265 264
3 265 270 271
3 271 266 265
3 267 272 273
3 273 268 267
3 268 273 274
3 274 269 268
3 269 274 275
3 275 270 269
3 270 275 276
3 276 271 270
3 272 277 278
3 278 273 272
3 273 278 279
3 279 274 273
3 274 279 280
3 280 275 274
3 275 280 281
3 281 276 275
3 277 282 283
3 283 278 277
3 278 283 284
3 284 279 278
3 279 284 285
3 285 280 279
3 280 285 286
3 286 281 280
3 282 287 288
3 288 283 282
3 283 288 289
3 289 284 283
3 284 289 290
3 290 285 284
3 285 290 291
3 291 286 285
3 287 292 293
3 293 288 287
3 288 293 294
3 294 289 288
3 289 294 295
3 295 290 289
3 290 295 296
3 296 291 290
3 292 710 711
3 712 293 292
3 293 713 714
3 715 294 293
3 294 716 717
3 718 295 294
3 295 719 720
3 721 296 295
3 261 266 301
3 301 297 261
3 297 301 302
3 302 298 297
3 298 302 303
3 303 299 298
3 299 303 304
3 304 300 299
3 266 271 305
3 305 301 266
3 301 305 306
3 306 302 301
3 302 306 307
3 307 303 302
3 303 307 308
3 308 304 303
3 271 276 309
3 309 305 271
3 305 309 310
3 310 306 305
3 306 310 311
3 311 307 306
3 307 311 312
3 312 308 307
3 276 281 313
3 313 309 276
3 309 313 314
3 314 310 309
3 310 314 315
3 315 311 310
3 311 315 316
3 316 312 311
3 281 286 317
3 317 313 281
3 313 317 318
3 318 314 313
3 314 318 319
3 319 315 314
3 315 319 320
3 320 316 315
3 286 291 321
3 321 317 286
3 317 321 322
3 322 318 317
3 318 322 323
3 323 319 318
3 319 323 324
3 324 320 319
3 291 296 325
3 325 321 291
3 321 325 326
3 326 322 321
3 322 326 327
3 327 323 322
3 323 327 328
3 328 324 323
3 296 722 723
3 724 325 296
3 325 725 726
3 727 326 325
3 326 728 729
3 730 327 326
3 327 731 732
3 733 328 327
3 329 334 335
3 335 330 329
3 330 335 336
3 336 331 330
3 331 336 337
3 337 332 331
3 332 337 338
3 338 333 332
3 334 339 340
3 340 335 334
3 335 340 341
3 341 336 335
3 336 341 342
3 342 337 336
3 337 342 343
3 343 338 337
3 339 344 345
3 345 340 339
3 340 345 346
3 346 341 340
3 341 346 347
3 347 342 341
3 342 347 348
3 348 343 342
3 344 349 350
3 350 345 344
3 345 350 351
3 351 346 345
3 346 351 352
3 352 347 346
3 347 352 353
3 353 348 347
3 734 354 355
3 355 735 736
3 737 355 356
3 356 738 739
3 740 356 357
3 357 741 742
3 743 357 358
3 358 744 745
3 354 359 360
3 360 355 354
3 355 360 361
3 361 356 355
3 356 361 362
3 362 357 356
3 357 362 363
3 363 358 357
3 359 364 365
3 365 360 359
3 360 365 366
3 366 361 360
3 361 366 367
3 367 362 361
3 362 367 368
3 368 363 362
3 364 329 330
3 330 365 364
3 365 330 331
3 331 366 365
3 366 331 332
3 332 367 366
3 367 332 333
3 333 368 367
3 333 338 373
3 373 369 333
3 369 373 374
3 374 370 369
3 370 374 375
3 375 371 370
3 371 375 376
3 376 372 371
3 338 343 377
3 377 373 338
3 373 377 378
3 378 374 373
3 374 378 379
3 379 375 374
3 375 379 380
3 380 376 375
3 343 348 381
3 381 377 343
3 377 381 382
3 382 378 377
3 378 382 383
3 383 379 378
3 379 383 384
3 384 380 379
3 348 353 385
3 385 381 348
3 381 385 386
3 386 382 381
3 382 386 387
3 387 383 382
3 383 387 388
3 388 384 383
3 746 358 389
3 389 747 748
3 749 389 390
3 390 750 751
3 752 390 391
3 391 753 754
3 755 391 392
3 392 756 757
3 358 363 393
3 393 389 358
3 389 393 394
3 394 390 389
3 390 394 395
3 395 391 390
3 391 395 396
3 396 392 391
3 363 368 397
3 397 393 363
3 393 397 398
3 398 394 393
3 394 398 399
3 399 395 394
3 395 399 400
3 400 396 395
3 368 333 369
3 369 397 368
3 397 369 370
3 370 398 397
3 398 370 371
3 371 399 398
3 399 371 372
3 372 400 399
3 401 758 406
3 406 402 401
3 402 406 407
3 407 403 402
3 403 407 408
3 408 404 403
3 404 408 409
3 409 405 404
3 759 760 410
3 410 406 761
3 406 410 411
3 411 407 406
3 407 411 412
3 412 408 407
3 408 412 413
3 413 409 408
3 762 763 414
3 414 410 764
3 410 414 415
3 415 411 410
3 411 415 416
3 416 412 411
3 412 416 417
3 417 413 412
3 765 766 418
3 418 414 767
3 414 418 419
3 419 415 414
3 415 419 420
3 420 416 415
3 416 420 421
3 421 417 416
3 768 769 422
3 422 418 770
3 418 422 423
3 423 419 418
3 419 423 424
3 424 420 419
3 420 424 425
3 425 421 420
3 771 772 426
3 426 422 773
3 422 426 427
3 427 423 422
3 423 427 428
3 428 424 423
3 424 428 429
3 429 425 424
3 774 775 430
3 430 426 776
3 426 430 431
3 431 427 426
3 427 431 432
3 432 428 427
3 428 432 433
3 433 429 428
3 777 778 434
3 434 430 779
3 430 434 435
3 435 431 430
3 431 435 436
3 436 432 431
3 432 436 437
3 437 433 432
3 401 780 438
3 438 781 401
3 782 438 439
3 439 783 784
3 785 439 440
3 440 786 787
3 788 440 441
3 441 789 790
3 791 792 442
3 442 438 793
3 438 442 443
3 443 439 438
3 439 443 444
3 444 440 439
3 440 444 445
3 445 441 440
3 794 795 446
3 446 442 796
3 442 446 447
3 447 443 442
3 443 447 448
3 448 444 443
3 444 448 449
3 449 445 444
3 797 798 450
3 450 446 799
3 446 450 451
3 451 447 446
3 447 451 452
3 452 448 447
3 448 452 453
3 453 449 448
3 800 801 454
3 454 450 802
3 450 454 455
3 455 451 450
3 451 455 456
3 456 452 451
3 452 456 457
3 457 453 452
3 803 804 458
3 458 454 805
3 454 458 459
3 459 455 454
3 455 459 460
3 460 456 455
3 456 460 461
3 461 457 456
3 806 807 462
3 462 458 808
3 458 462 463
3 463 459 458
3 459 463 464
3 464 460 459
3 460 464 465
3 465 461 460
3 809 810 811
3 812 462 813
3 462 814 815
3 816 463 462
3 463 817 818
3 819 464 463
3 464 820 821
3 822 465 464
3 823 824 470
3 470 466 825
3 466 470 471
3 471 467 466
3 467 471 472
3 472 468 467
3 468 472 473
3 473 469 468
3 826 827 474
3 474 470 828
3 470 474 475
3 475 471 470
3 471 475 476
3 476 472 471
3 472 476 477
3 477 473 472
3 829 830 478
3 478 474 831
3 474 478 479
3 479 475 474
3 475 479 480
3 480 476 475
3 476 480 481
3 481 477 476
3 832 833 482
3 482 478 834
3 478 482 483
3 483 479 478
3 479 483 484
3 484 480 479
3 480 484 485
3 485 481 480
3 835 836 486
3 486 482 837
3 482 486 487
3 487 483 482
3 483 487 488
3 488 484 483
3 484 488 489
3 489 485 484
3 838 839 490
3 490 486 840
3 486 490 491
3 491 487 486
3 487 491 492
3 492 488 487
3 488 492 493
3 493 489 488
3 841 842 494
3 494 490 843
3 490 494 495
3 495 491 490
3 491 495 496
3 496 492 491
3 492 496 497
3 497 493 492
3 844 845 498
3 498 494 846
3 494 498 499
3 499 495 494
3 495 499 500
3 500 496 495
3 496 500 501
3 501 497 496
3 847 848 502
3 502 849 850
3 851 502 503
3 503 852 853
3 854 503 504
3 504 855 856
3 857 504 505
3 505 858 859
3 860 861 506
3 506 502 862
3 502 506 507
3 507 503 502
3 503 507 508
3 508 504 503
3 504 508 509
3 509 505 504
3 863 864 510
3 510 506 865
3 506 510 511
3 511 507 506
3 507 511 512
3 512 508 507
3 508 512 513
3 513 509 508
3 866 867 514
3 514 510 868
3 510 514 515
3 515 511 510
3 511 515 516
3 516 512 511
3 512 516 517
3 517 513 512
3 869 870 518
3 518 514 871
3 514 518 519
3 519 515 514
3 515 519 520
3 520 516 515
3 516 520 521
3 521 517 516
3 872 873 522
3 522 518 874
3 518 522 523
3 523 519 518
3 519 523 524
3 524 520 519
3 520 524 525
3 525 521 520
3 875 876 526
3 526 522 877
3 522 526 527
3 527 523 522
3 523 527 528
3 528 524 523
3 524 528 529
3 529 525 524
3 878 879 880
3 881 526 882
3 526 883 884
3 885 527 526
3 527 886 887
3 888 528 527
3 528 889 890
3 891 529 528
